<?xml version="1.0" encoding="UTF-8"?>
<svg xmlns="http://www.w3.org/2000/svg" style="display: none;">
   <symbol id="ttl-spoiler-icon" viewBox="0 0 512 512">
      <path d="M255.9.2h-64v64h64zM0 64.17v64h64v-64zM128 .2H64v64h64zm64 255.9v64h64v-64zM0 192.12v64h64v-64zM383.85.2h-64v64h64zm128 0h-64v64h64zM128 256.1H64v64h64zM511.8 448v-64h-64v64zm0-128v-64h-64v64zM383.85 512h64v-64h-64zm128-319.88v-64h-64v64zM128 512h64v-64h-64zM0 512h64v-64H0zm255.9 0h64v-64h-64zM0 320.07v64h64v-64zm319.88-191.92v-64h-64v64zm-64 128h64v-64h-64zm-64 128v64h64v-64zm128-64h64v-64h-64zm0-127.95h64v-64h-64zm0 191.93v64h64v-64zM64 384.05v64h64v-64zm128-255.9v-64h-64v64zm191.92 255.9h64v-64h-64zm-128-191.93v-64h-64v64zm128-127.95v64h64v-64zm-128 255.9v64h64v-64zm-64-127.95H128v64h64zm191.92 64h64v-64h-64zM128 128.15H64v64h64zm0 191.92v64h64v-64z"/>
   </symbol>
   <symbol id="ttl-dice-icon" viewBox="0 0 640 512">
      <path d="M592 192H473.26c12.69 29.59 7.12 65.2-17 89.32L320 417.58V464c0 26.51 21.49 48 48 48h224c26.51 0 48-21.49 48-48V240c0-26.51-21.49-48-48-48zM480 376c-13.25 0-24-10.75-24-24 0-13.26 10.75-24 24-24s24 10.74 24 24c0 13.25-10.75 24-24 24zm-46.37-186.7L258.7 14.37c-19.16-19.16-50.23-19.16-69.39 0L14.37 189.3c-19.16 19.16-19.16 50.23 0 69.39L189.3 433.63c19.16 19.16 50.23 19.16 69.39 0L433.63 258.7c19.16-19.17 19.16-50.24 0-69.4zM96 248c-13.25 0-24-10.75-24-24 0-13.26 10.75-24 24-24s24 10.74 24 24c0 13.25-10.75 24-24 24zm128 128c-13.25 0-24-10.75-24-24 0-13.26 10.75-24 24-24s24 10.74 24 24c0 13.25-10.75 24-24 24zm0-128c-13.25 0-24-10.75-24-24 0-13.26 10.75-24 24-24s24 10.74 24 24c0 13.25-10.75 24-24 24zm0-128c-13.25 0-24-10.75-24-24 0-13.26 10.75-24 24-24s24 10.74 24 24c0 13.25-10.75 24-24 24zm128 128c-13.25 0-24-10.75-24-24 0-13.26 10.75-24 24-24s24 10.74 24 24c0 13.25-10.75 24-24 24z"/>
   </symbol>
   <symbol id="ttl-ficintro-icon" viewBox="0 0 384 512">
      <path d="M224 136V0H24C10.7 0 0 10.7 0 24v464c0 13.3 10.7 24 24 24h336c13.3 0 24-10.7 24-24V160H248c-13.2 0-24-10.8-24-24zm64 236c0 6.6-5.4 12-12 12H108c-6.6 0-12-5.4-12-12v-8c0-6.6 5.4-12 12-12h168c6.6 0 12 5.4 12 12v8zm0-64c0 6.6-5.4 12-12 12H108c-6.6 0-12-5.4-12-12v-8c0-6.6 5.4-12 12-12h168c6.6 0 12 5.4 12 12v8zm0-72v8c0 6.6-5.4 12-12 12H108c-6.6 0-12-5.4-12-12v-8c0-6.6 5.4-12 12-12h168c6.6 0 12 5.4 12 12zm96-114.1v6.1H256V0h6.1c6.4 0 12.5 2.5 17 7l97.9 98c4.5 4.5 7 10.6 7 16.9z"/>
   </symbol>
</svg>